<?xml version="1.0" encoding="utf-8"?>
<!-- Generator: Adobe Illustrator 21.0.0, SVG Export Plug-In . SVG Version: 6.00 Build 0)  -->
<svg version="1.1" id="Layer_1" xmlns="http://www.w3.org/2000/svg" xmlns:xlink="http://www.w3.org/1999/xlink" x="0px" y="0px"
	 viewBox="0 0 4000 2987.4" style="enable-background:new 0 0 4000 2987.4;" xml:space="preserve">
<style type="text/css">
	.st0{opacity:0.2;enable-background:new    ;}
	.st1{fill:#371A45;}
	.st2{fill:#CEBBAA;}
	.st3{opacity:0.6;enable-background:new    ;}
	.st4{fill:#FFFFFF;}
	.st5{fill:#563121;}
	.st6{fill:#E62036;}
	.st7{opacity:0.4;enable-background:new    ;}
	.st8{fill:#F2AE75;}
	.st9{fill:#9B4B3B;}
	.st10{fill:#FF457D;}
	.st11{fill:#E5924E;}
	.st12{fill:#CD8F54;}
	.st13{fill:#A15A48;}
	.st14{fill:#FF456D;}
</style>
<g>
	<g>
		<g class="st0">
			<g>
				<path class="st1" d="M1959.3,2204.4c-703.8,0-1274.3,96.8-1274.3,216.3c0,113.3,514.6,205.3,1167.6,214.7
					c27.8,133.2,343.6,238.3,729.9,238.3c404.6,0,732.6-115.3,732.6-257.4c0-52.6-45.1-101.4-122.1-142.1
					c25.6-17.1,40.5-35,40.5-53.4C3233.6,2301.2,2663.1,2204.4,1959.3,2204.4z"/>
			</g>
		</g>
		<g>
			<g>
				<path class="st2" d="M2226.1,209.8c0,0,199.9-183.8,373.8,22.4c173.9,206.2,1.8,420.4,1.8,420.4L2226.1,209.8z"/>
			</g>
		</g>
		<g class="st3">
			<g>
				<path class="st4" d="M2399.4,129.1c-37,1.3-70.6,11.9-98.8,24.6c77.5,4.2,165.9-5.4,261.1,101.1
					c88.4,98.9,90.9,206.8,55.2,360.4c39.5-64.9,113-227.3-22.9-388.3C2528.8,149.5,2459.9,127,2399.4,129.1z"/>
			</g>
		</g>
		<g class="st0">
			<g>
				<path class="st1" d="M2369.9,136.6c-83.3,15.8-143.8,70.8-143.8,70.8l375.6,443c0,0,72.2-90.7,75.4-210.6
					C2514.6,370.6,2414.3,218.8,2369.9,136.6z"/>
			</g>
		</g>
		<g>
			<g>
				<path class="st1" d="M2601.7,672c-5.7,0-11.1-2.5-14.8-6.9l-375.6-442.8c-6.7-7.9-6-19.8,1.7-26.9c3.9-3.6,96.7-87.6,214.7-80.1
					c69.5,4.4,132.5,39.5,187.1,104.3c95.2,112.9,90.6,228.2,70,305.1c-22.1,82.3-66.1,137.7-67.9,140c-3.6,4.5-9.1,7.2-14.9,7.3
					C2601.9,672,2601.8,672,2601.7,672z M2253.8,212.4l346.4,408.4c13.8-21.7,34.9-59.9,47.4-107.4c26-98.3,4.9-188.7-62.6-268.7
					c-47.5-56.3-101.2-86.7-159.6-90.5C2348.9,149.2,2282.2,191.2,2253.8,212.4z"/>
			</g>
		</g>
		<g>
			<g>
				<path class="st2" d="M2345.3,1420.7c-103,244.7-201.5,719.4,127.4,936c41.4,27.3,129,80.7,232.3,73.7
					c160.7-11,157-12.1,228.3-24.2c22.3-3.8,43.7-14.6,54.9-32.6c7.5-12,18.2-32.7,16.2-64.3c-3.9-63.8-29.7-131.9-174.3-165.3
					c0,0-83.3-113.6-78.3-291.1C2766.4,1327.9,2345.3,1420.7,2345.3,1420.7z"/>
			</g>
		</g>
		<g>
			<g>
				<path class="st1" d="M2686.4,2450.5c-106.8,0-194.5-57.7-224.4-77.5c-151.1-99.6-229.9-258.8-234.3-473.3
					c-4.4-214.7,68.3-411.7,99.8-486.5c2.4-5.8,7.6-10.1,13.7-11.4c7-1.6,173.4-36.7,298.9,67.1c92.1,76.1,136.2,205.6,131.2,384.7
					c-4.1,146.6,55,248.9,70.8,273.4c153.4,37.7,177.8,116.5,181.8,181.3c2.5,41-13.8,67.1-19.1,75.7
					c-13.3,21.3-38.1,36.4-68.1,41.5l-18.7,3.2c-54.1,9.3-65.3,11.2-211.5,21.2C2699.6,2450.2,2692.9,2450.5,2686.4,2450.5z
					 M2359.1,1438c-41,101.2-245,659.3,124.2,902.5c29.1,19.2,117.8,77.5,220.3,70.5c144.2-9.8,155.1-11.7,207.5-20.7l18.8-3.2
					c18.8-3.2,34.3-12,41.6-23.7c6.5-10.4,14.9-27.2,13.3-52.8c-3.5-58.4-25.3-116.6-159.3-147.6c-4.5-1-8.5-3.7-11.3-7.4
					c-3.6-4.9-87.2-121-82-303.1c4.7-166.4-34.6-285.3-116.8-353.5C2520.9,1420.6,2394.8,1432.6,2359.1,1438z"/>
			</g>
		</g>
		<g class="st0">
			<g>
				<path class="st1" d="M2420.9,1422.9c-39.3,0.5-65.7,6.4-65.7,6.4c-103,244.7-201.4,719.3,127.4,936
					c41.4,27.3,128.9,80.6,232.3,73.6c160.7-11,157-12.1,228.3-24.1c22.3-3.8,43.7-14.6,54.9-32.6c7.5-12,18.2-32.6,16.2-64.2
					c-0.2-4-0.9-8.1-1.4-12.1c-192.1,62.4-528,66.6-433.3-153.1c92.3-214.1,94.6-500.6,90.3-628.3c-51.1-58.6-115.4-84.4-172.8-94.8
					l-17.9-2.9C2458.2,1423.9,2438.2,1422.7,2420.9,1422.9z"/>
			</g>
		</g>
		<g>
			<g>
				<path class="st2" d="M1972.9,1313c271.4,0,632.6,86,632.6,86s163.3,1004-790.8,1052.1s-514-990.2-514-990.2
					C1438.5,1345.9,1724.8,1313,1972.9,1313z"/>
			</g>
		</g>
		<g>
			<g>
				<path class="st1" d="M1752.4,2472c-228.2,0-390.5-67-483.2-199.5c-85.4-122.2-109.9-303-70.9-522.9
					c29.2-164.4,82.4-291.1,84.6-296.4c1.2-2.8,3.1-5.4,5.4-7.3c158.8-132.6,497.1-152.4,684.6-152.4c270.5,0,633.5,85.6,637.1,86.5
					c7.6,1.8,13.4,8,14.7,15.8c0.8,4.8,19.1,120.3,6.5,276.2c-11.7,144.4-53.8,351.1-187.2,516.3
					c-140,173.3-351.4,268.2-628.3,282.2C1794.1,2471.5,1772.9,2472,1752.4,2472z M1316.9,1472.7c-20,49.8-199.3,515.3-15.8,777.6
					c92.9,132.8,265.3,193.7,512.7,181.3c265.3-13.4,467.1-103.4,599.9-267.6c220.9-273.2,184-672.9,174.5-749.2
					c-66.8-15.1-377.9-82.5-615.2-82.5C1792.2,1332.4,1467.9,1350.7,1316.9,1472.7z"/>
			</g>
		</g>
		<g class="st0">
			<g>
				<path class="st1" d="M1972.9,1315.8c-248.2,0-534.5,33-672.2,147.9c0,0-440,1038.4,514.1,990.3c34.8-1.8,67.7-5.2,99.7-9.4
					c0.2-112.4-46.5-240.3-106.2-292.2c-80-69.5-61-164.1-61-164.1c429.5,324.3,756.5-216.4,868.5-440.1
					c-1.2-88-10.3-146.4-10.3-146.4S2244.2,1315.8,1972.9,1315.8z"/>
			</g>
		</g>
		<g>
			<g>
				<path class="st2" d="M1231.3,1721.3c-101.4-3.8-233.5,191.8-258.5,334.9c0,0-59.5-30.1-109.8,32
					c-67.5,83.4-50.7,337.5,107,362.1c179.8,28.1,637.9,0,637.9,0S1566.2,1733.8,1231.3,1721.3z"/>
			</g>
		</g>
		<g class="st3">
			<g>
				<path class="st4" d="M1102.1,1801.8c-61,69.2-113.1,171-127.9,255.5c0,0-59.6-30.1-109.8,32c-35.2,43.6-47.1,133.5-28.4,213.1
					c0.1-3.5,0.3-6.5,0.3-10.2c0.9-223.3,193.1-205.4,193.1-205.4C1026.7,2014.7,1074.8,1875,1102.1,1801.8z"/>
			</g>
		</g>
		<g class="st0">
			<g>
				<path class="st1" d="M1232.6,1721.2c-60.9-2.3-132.5,67.7-185.7,154.7c0,0.1,0,0.2,0,0.3c-6.4,101,4.9,228.7,75.2,335
					c107.8,162.9-85.7,226-247.4,178.1c23.1,31.4,54.7,54.4,96.6,61c179.8,28.1,637.9,0,637.9,0S1567.6,1733.7,1232.6,1721.2z"/>
			</g>
		</g>
		<g>
			<g>
				<path class="st1" d="M1216.4,2482.2c-95.6,0-187.9-3.2-249.3-12.8c-62.9-9.8-112.5-53.9-139.5-124
					c-35.2-91.2-26-212.1,20.4-269.5c36.3-44.8,80.1-50.3,110.2-44.7c33.6-140.8,161-333.6,273.8-329.4c82.6,3.1,154.9,45.8,215,127
					c46.5,62.8,85.8,149,116.8,256.2c52.3,180.7,63.3,362.3,63.4,364.1c0.6,10.7-7.5,19.9-18.2,20.5
					C1596.8,2470.4,1400.4,2482.2,1216.4,2482.2z M938,2068c-16.6,0-38.8,6.3-59.9,32.3c-37.3,46.1-44,154.1-14.4,231.1
					c15.4,40.1,46.9,89.9,109.2,99.6c154.6,24.1,524.6,5.8,614,0.9c-9.7-113-72.8-680.7-356.4-691.3c-0.8,0-1.5,0-2.3,0
					c-87.7,0-213,185.5-236.3,318.9c-1.1,6.1-4.9,11.3-10.4,14c-5.5,2.8-12,2.7-17.5,0C962,2072.5,952,2068,938,2068z"/>
			</g>
		</g>
		<g>
			<g>
				<path class="st1" d="M978.5,2037.2c4.3,1.5,7.5,2.9,11,4.6c3.4,1.7,6.7,3.4,9.9,5.4c6.5,3.7,12.5,8.1,18.4,12.7
					c11.7,9.2,21.9,20.1,31.3,31.7c9.4,11.5,17.4,24.1,24,37.3c6.7,13.1,11.3,27.3,14.1,41.4c0.3,1.5-0.7,3-2.2,3.3
					c-1,0.2-2-0.2-2.7-0.9l-0.1-0.1c-9.4-10.7-17.9-21.1-27.9-30.3c-4.5-4.9-9.9-9-14.6-13.5c-5.1-4.3-10.1-8.4-15.3-12.4
					c-10.3-8-21.1-15.3-31.7-22.6c-2.7-1.8-5.3-3.6-8-5.4c-2.7-1.7-5.3-3.6-7.9-5.4c-2.7-1.7-5.2-3.7-7.9-5.4
					c-2.5-1.8-5.4-3.7-7.2-5.3l-2.2-1.9c-8.2-6.9-9.2-19.2-2.3-27.4C962.5,2036.7,971.1,2034.6,978.5,2037.2z"/>
			</g>
		</g>
		<g>
			<g>
				<path class="st1" d="M932,2055.3c0.2-0.1,0.2,1,0.3,1.7l0.2,2.4l0.3,5.1c0.3,3.4,0.5,6.9,0.8,10.5c0.7,7.1,1.4,14.5,2.7,22.1
					c1.5,7.5,3.3,15.2,5.8,22.9c1,4,2.6,7.7,3.8,11.8c1.4,3.9,2.9,7.9,4.3,12.2v0.2c0.4,1.2-0.3,2.4-1.5,2.8
					c-0.7,0.2-1.4,0.1-1.9-0.3c-3.6-2.5-7.3-5.2-10.6-8.2s-6.6-6.1-9.6-9.5c-6-6.8-11.3-14.4-15.7-22.6c-4.3-8.3-7.9-17.2-9.6-26.8
					c-0.9-4.8-1.4-9.6-1.2-14.6c0-2.5,0.3-5,0.6-7.6c0.2-1.3,0.4-2.5,0.7-3.9s0.6-2.4,1.2-4.6c1.8-8.1,9.8-13.2,17.9-11.4
					C928.7,2039.3,933.8,2047.3,932,2055.3z"/>
			</g>
		</g>
		<g>
			<g>
				<path class="st1" d="M869.9,2101.7c0.4,0.7,0.6,2.5,1,4c0.2,1.5,0.6,3,0.7,4.6c0.5,3.1,0.8,6.2,1.2,9.4
					c0.8,6.3,1.2,12.9,2.3,19.4c1,6.6,2.2,13.3,4,20.1c1.5,6.9,3.8,13.7,5.8,21.2v0.1c0.3,1.2-0.4,2.5-1.6,2.8
					c-0.6,0.2-1.3,0.1-1.8-0.3c-13.4-8.3-24.2-20.7-31.9-35c-3.9-7.1-7.1-14.7-8.8-22.7c-0.9-4-1.5-8.1-1.7-12.2
					c-0.1-2.1-0.1-4.2,0-6.3c0.1-2.2,0.4-4.1,0.9-6.9c1.5-7.7,8.9-12.8,16.7-11.4c4.3,0.8,7.7,3.5,9.7,7L869.9,2101.7z"/>
			</g>
		</g>
		<g>
			<g>
				<path class="st4" d="M921.6,2325.7c29.3-0.7,40.1-36.1,66-49.9c26-13.8,60.9-5.7,67.8-22.5c13.1-31.9-54-72.9-118.2-31.3
					C868.9,2266.3,894.2,2326.4,921.6,2325.7z"/>
			</g>
		</g>
		<g>
			<g>
				<path class="st2" d="M1279.8,1427.2c-123.6,219.5-272.6,659.3-6.7,911.5c33.5,31.8,104.8,94.8,198.1,102.3
					c145,11.6,141.8,10,207.1,8.3c20.4-0.5,40.9-8,53.2-23.6c8.3-10.5,20.4-28.7,22.8-59.1c4.7-61.5-9.5-130.1-134.4-181.9
					c0,0-59.8-119.9-32.5-288.8C1668.1,1396.5,1279.8,1427.2,1279.8,1427.2z"/>
			</g>
		</g>
		<g class="st0">
			<g>
				<path class="st1" d="M1203.2,1592.5c-91,232.4-140.4,548.9,69.9,748.3c33.5,31.8,104.7,94.8,198,102.2
					c145,11.6,141.9,10,207.2,8.3c20.4-0.5,40.9-7.9,53.2-23.5c8.3-10.5,20.4-28.7,22.8-59.2c2.5-32.2-0.8-66.3-22-99.1
					c-80.6,54.3-209.6,95.8-370.5-12C1161.1,2123.2,1178.1,1777.1,1203.2,1592.5z"/>
			</g>
		</g>
		<g class="st3">
			<g>
				<path class="st4" d="M1452.8,2198.2c0,0,148.1-12.6,293,121.1C1745.9,2319.3,1690.8,2113.1,1452.8,2198.2z"/>
			</g>
		</g>
		<g>
			<g>
				<path class="st1" d="M1625.2,2470c-28.9,0-61-2-155.6-9.6c-105.4-8.5-184-83.1-209.9-107.6c-122.3-116-172.3-278.9-148.6-484.3
					c23.7-205.6,114-383.8,151.8-450.8c3.2-5.6,8.9-9.3,15.4-9.8c6.2-0.5,153.3-10.8,253,97.4c78.5,85.1,103.8,217.7,75.3,393.9
					c-22.6,139.6,16.7,244.7,27.9,270.7c132.4,57.4,144.1,135.9,139.2,198.3c-3.1,39.4-21,62.2-26.9,69.7c-15,19-39.7,30.2-68,31
					l-17.1,0.5C1647.6,2469.6,1636.6,2470,1625.2,2470z M1291.4,1446.3c-50.7,93.2-302.6,596.1-5,878.3
					c23.4,22.2,94.6,89.7,186.3,97c129.9,10.4,139.9,10.1,187.8,8.8l17.2-0.5c16.4-0.4,30.8-6.5,38.5-16.2
					c7.1-9,16.7-23.8,18.7-48.6c4.3-56.2-7.5-114.8-122.5-162.4c-4.3-1.8-7.9-5.1-9.9-9.3c-2.6-5.1-62.3-127.5-34.3-300.5
					c26.5-163.6,4.5-285.1-65.2-361.1c-72.5-78.9-177.9-85.5-211.2-85.5C1291.6,1446.3,1291.5,1446.3,1291.4,1446.3z"/>
			</g>
		</g>
		<g class="st0">
			<g>
				<g>
					<path class="st5" d="M1301.6,1451.4c-10.5-0.1-16.5,0.3-16.5,0.3c-16.1,28.5-32.6,28.6-48.5,63.6
						c41.2,49.6,35.7,77.2,183.6,183.1c181.4,129.8,111.8,271.1,170.3,382.8c-6-45-7.6-99.4,2.3-160.7
						C1663.4,1483.5,1374.8,1452.3,1301.6,1451.4z"/>
				</g>
			</g>
			<g>
				<g>
					<path class="st1" d="M1594.8,2094.9l-6.6-12.5c-20.3-38.7-25.3-80.4-30.5-124.6c-10.2-84.9-20.6-172.7-139-257.4
						c-112.6-80.6-136.6-116-159.8-150.3c-7.4-11-14.5-21.4-24.3-33.2l-1-1.2l0.6-1.4c9-19.8,18.3-28.8,27.3-37.5
						c7.4-7.1,14.3-13.9,21.4-26.4l0.7-1.2l1.3-0.1c0.2,0,6.3-0.4,16.7-0.3c44.2,0.6,155,11.6,230.4,101.4
						c68.5,81.5,89.7,206.3,63.1,370.7c-8.6,53.1-9.3,106.9-2.3,159.9L1594.8,2094.9z M1239.5,1514.9c9.5,11.6,16.7,22.2,23.6,32.4
						c22.9,33.9,46.6,69,158.5,149c120.1,86,131.2,178.9,141,260.9c4.6,38.5,9,75,23.5,109.1c-5.1-48.6-3.7-97.7,4.1-146.2
						c26.4-163,5.5-286.3-62-366.7c-74.1-88.2-183.2-99-226.7-99.6l0,0c-7.4-0.1-12.7,0.1-15,0.2c-7.2,12.4-14.5,19.4-21.6,26.3
						C1256.2,1488.9,1247.8,1497,1239.5,1514.9z"/>
				</g>
			</g>
		</g>
		<g>
			<g>
				<path class="st6" d="M1302.3,1455.3c0,0,452.5,496.6,729.3,494.6c234.7-1.7,534.8-325.5,570.7-528.5
					C2602.3,1421.4,2145.7,1038.8,1302.3,1455.3z"/>
			</g>
		</g>
		<g class="st0">
			<g>
				<path class="st1" d="M2083.4,1251.6c-199.5-6.1-454.9,36.2-762.3,184.5c3.2,13.2,6.8,26.6,10.6,40.5
					c26.4,28,75.1,77.9,157.9,152.6c40-3.5,86.1-11.5,130-29.1c0,0,120.1,87.5,226.5,66.9c0,0,324.2,157.8,581.5-89.2
					c0,0,50.5,0.8,112.7-15.9c31.1-52.9,53.1-104.7,61.1-150.3C2601.4,1411.4,2423.2,1262,2083.4,1251.6z"/>
			</g>
		</g>
		<g>
			<g>
				<path class="st1" d="M1611.2,2201.8c-2.6-0.3-6.2-1-9.4-1.5l-10-1.8l-10-1.8l-10.1-1.6c-13.5-2-27-3.9-40.7-4.4
					c-13.7-0.7-27.5,0.2-41.3,2.3l-10.5,1.8c-3.4,0.9-6.8,1.9-10.4,2.7l-5.3,1.4l-5.1,1.8c-3.4,1.2-7,2.4-10.6,3.6l-0.3,0.1
					c-1.5,0.5-3.1-0.3-3.5-1.8c-0.3-1,0-2.1,0.7-2.9c2.7-2.7,5.4-5.5,8.3-8.2l4.3-4.1l4.7-3.5c3.2-2.4,6.4-4.7,9.8-6.9
					c3.5-1.9,6.9-3.9,10.5-5.8c14.4-7.2,30-12.7,46-15.3c16-2.8,32.3-4.1,48.5-2.6c8,0.8,16.1,1.9,23.9,3.9c4,0.9,7.9,2.1,11.7,3.3
					c4,1.4,7.5,2.7,12,4.8c9.7,4.6,13.8,16.1,9.3,25.8c-3.6,7.6-11.6,11.8-19.5,11L1611.2,2201.8z"/>
			</g>
		</g>
		<g class="st7">
			<g>
				<path class="st4" d="M1876.8,1729.5c62.9,47,119,69.5,167.8,78.4c-91.9,1.8-170.8-14.5-170.8-14.5
					c245.2,127,362.5-22.9,370.1-33.2c2.7-2.4,5.2-4.6,5.2-4.6C2103.4,1819.4,1876.8,1729.5,1876.8,1729.5z"/>
			</g>
		</g>
		<g>
			<g>
				<path class="st1" d="M1641.8,2443c-0.1-1,0.4-2.8,0.7-4.3c0.4-1.6,0.7-3.2,1.2-4.8c0.8-3.2,1.8-6.4,2.8-9.6
					c2-6.4,4.3-12.8,6.2-19.5c2-6.7,3.8-13.6,5.1-20.7c1.6-7.2,2.3-14.7,3.5-22.8v-0.2c0.2-1.4,1.5-2.4,2.9-2.2
					c0.7,0.1,1.3,0.5,1.7,1c5.1,6.7,9.1,14.2,11.9,22.3c2.9,8,4.6,16.5,5.3,25.1c0.7,8.6,0.7,17.3-1,25.7c-0.8,4.2-1.9,8.4-3.5,12.5
					c-0.8,2-1.7,4-2.7,6c-1.1,2.1-2.1,3.8-3.7,6.2c-5.1,7.5-15.2,9.4-22.7,4.4c-4.1-2.8-6.6-7.2-7.1-11.8L1641.8,2443z"/>
			</g>
		</g>
		<g>
			<g>
				<path class="st1" d="M1548.4,2443c-0.2,0.1-0.1-0.3-0.1-0.6s0-0.7,0.1-1l0.3-2.2l0.8-4.5l1.8-9.2c1.1-6.2,2.7-12.7,3.4-19.4
					c0.7-6.7,1.4-13.8,1.1-21.2c0.2-3.8-0.3-7.4-0.3-11.3c-0.2-3.9-0.7-7.8-0.8-11.9v-0.3c0-1.4,1.1-2.6,2.5-2.6
					c0.7,0,1.3,0.2,1.8,0.7c3.1,2.8,6.2,5.8,8.8,9.1c2.6,3.3,5.2,6.8,7.3,10.5c4.5,7.4,7.6,15.6,10.1,24.2
					c2.2,8.6,3.3,17.7,2.6,26.8c-0.3,4.5-1.2,9.1-2.4,13.5c-0.7,2.3-1.5,4.4-2.4,6.7c-0.5,1.1-1,2.2-1.6,3.3c-0.3,0.6-0.6,1.1-1,1.7
					l-1.3,2.1c-4,8.4-14.1,12-22.6,8C1547.9,2461.5,1544.4,2451.4,1548.4,2443z"/>
			</g>
		</g>
		<g>
			<g>
				<path class="st1" d="M2030,1969.3c-282.3,0-723.3-480.5-742-501c-4.1-4.5-5.9-10.7-4.7-16.7c1.1-6,5-11.1,10.5-13.8
					c194.2-95.9,384.3-157.4,564.8-182.8c145-20.4,284.2-17.7,413.8,8.1c221.9,44.1,337.6,139.4,342.4,143.4
					c5.3,4.5,7.9,11.4,6.7,18.3c-18.3,103.3-101.2,237.5-216.4,350.2c-125.4,122.7-261.4,193.5-373.3,194.3
					C2031.1,1969.3,2030.5,1969.3,2030,1969.3z M1334.5,1461.2c85.7,90.1,460.5,469.3,695.4,469.3c0.5,0,1,0,1.6,0
					c101.9-0.7,228.2-67.5,346.4-183.2c103.7-101.5,182.1-224.7,203-317.8c-30.6-22.3-139.4-93.7-318.6-128.8
					C2068.9,1262.8,1752.3,1260.7,1334.5,1461.2z"/>
			</g>
		</g>
		<g>
			<g>
				<path class="st1" d="M1305.1,1451.3c22.9,20,47,38,71.6,55c24.5,17.3,49.8,33.2,75.2,48.8c51.1,31,104,58.6,157.7,84.6
					l40.5,19.2c13.6,6.2,27.4,11.9,41.1,18c27.1,12.7,55.3,23,82.8,34.9c13.7,6.1,28,10.9,41.9,16.5c14,5.4,28,11,42,16.6
					c28.3,10.5,56.7,20.8,84.8,32.6c-15-2.2-30-4.8-45-7.4c-15-2.7-29.9-5.5-44.8-8.7c-14.7-3.6-29.5-7.4-44.2-11.2l-22.1-5.9
					c-3.7-1-7.4-1.9-11-3l-10.9-3.5c-14.5-4.7-29-9.4-43.4-14.3c-14.6-4.5-28.7-10.3-42.9-15.9c-14.2-5.6-28.4-11.2-42.5-17.1
					l-41.6-19.2c-55-26.7-108.2-57.3-157.7-93.3c-24.6-18.3-48.6-37.3-70.8-58.4c-11.3-10.3-21.9-21.3-32.3-32.6
					C1323.6,1475.6,1313.5,1464.1,1305.1,1451.3z"/>
			</g>
		</g>
		<g>
			<g>
				<path class="st1" d="M2601.6,1426.4c-2.8,10-6.6,19.7-10.6,29.2c-4,9.6-8.5,18.9-13.3,28.1c-9.6,18.4-20.4,36.2-32.2,53.3
					c-23.8,34.1-51.5,65.7-82.8,93.5s-66,51.9-103.5,70.5c-37.4,18.7-77.7,31.7-118.7,36.8c36.8-19.1,71.9-38.3,105-60.7
					c33.2-22.1,64.4-46.5,94-72.8c29.6-26.4,57.7-54.6,84.5-84.4C2550.7,1490.2,2576.4,1459.2,2601.6,1426.4z"/>
			</g>
		</g>
		<g>
			<g>
				<path class="st2" d="M2005.1,133.3c-217.8,0-680.1,132.3-811.6,725.9c-140.4,634.2,253.9,774.9,426.7,657.1
					c0,0,94.2,144,238.2,70.7c0,0,379.6,149.2,573.3-86.4c0,0,104.7,70.7,199-89c0,0,345.6-222.5,47.1-583.8
					C2677.9,827.7,2597.2,133.3,2005.1,133.3z"/>
			</g>
		</g>
		<g class="st0">
			<g>
				<path class="st1" d="M1405,418.5c-91.8,106.5-168.8,249.4-211.2,440.7c-140.4,634.2,253.9,774.8,426.7,657
					c0,0,94.2,144,238.2,70.7c0,0,379.7,149.3,573.4-86.3c0,0,104.6,70.6,198.9-89c0,0,309-199.3,89.7-526.7
					c51.5,328.2-174.8,373.3-174.8,373.3c-311.3,345.4-946.8,127.9-946.8,127.9c-146.6-1.6-219.8-31.7-294.1-131.1
					c-74.2-99.3-94.5-260.7-54.1-433.1C1285.3,675.7,1373.3,518.5,1405,418.5z"/>
			</g>
		</g>
		<g>
			<g>
				<path class="st8" d="M2143.7,897.4c-14.8,0-29.7,0.6-44.8,2.1c-254.4,25.2-539.8,252.6-499.8,623.6c4.2-2.4,8.8-4.3,12.7-7
					c0,0,94.2,144,238.2,70.7c0,0,379.5,149.1,573.3-86.5c0,0,104.8,70.8,199-88.9c0,0,0.9-0.7,0.9-0.8
					c7.4-17.6,42.7-111.9-12.7-230C2553.1,1058.5,2365.4,897.4,2143.7,897.4z"/>
			</g>
		</g>
		<g class="st3">
			<g>
				<path class="st4" d="M2000.1,129c-160.5,0-453.3,72.6-649.1,347.8c170.4-140.8,412.4-289.1,649-278.2c23.7,1.1,46.1,3.4,68,6.2
					c-1.4,1.7-2.9,3.3-3.6,5.3c-9,24.6,36.4,63.8,101.3,87.4c65,23.6,124.8,22.8,133.8-1.8c1.7-4.7,0.9-10.1-1.1-15.6
					C2494.7,391.8,2575,590.8,2649,708C2596.8,510.7,2439.3,129,2000.1,129z"/>
			</g>
		</g>
		<g>
			<g>
				<path class="st1" d="M2115.1,1652.9c-14.3,0-28.9-0.5-43.8-1.5c-102.1-6.7-185.9-34.2-211.7-43.4
					c-111.3,51.7-202.3-13.2-244.3-65.8c-86,48.7-201.7,40.8-294.1-21.8c-73.2-49.6-126.5-129.4-154.2-231
					c-32.4-119.1-29.9-265.3,7.6-434.6c129.5-585,583-741.1,830.5-741.1c249.6,0,448.6,123.6,575.5,357.4
					c86.4,159.3,111.4,316.2,115.9,348.5c82,100.6,123.1,200.7,122.3,297.5c-0.6,73.8-25.3,144.2-73.2,209.1
					c-41.2,55.7-86.7,89.5-100.3,98.9c-36.4,60.3-79.1,96.3-126.7,107.1c-35.4,8-64.9-0.3-81.9-7.5
					C2361.1,1609,2250.8,1652.9,2115.1,1652.9z M1858.5,1567.5c2.4,0,4.8,0.4,7.1,1.3c3.7,1.4,368.9,141.2,551.2-80.6
					c6.4-7.7,17.6-9.4,25.9-3.8c1.1,0.7,29.4,18.8,68,9.8c37.5-8.8,72.3-39.9,103.4-92.6c1.5-2.6,3.7-4.8,6.2-6.5
					c0.5-0.3,50.4-33,94-92c71.4-96.5,120.4-255.3-51.3-463.2c-2.4-2.9-3.9-6.4-4.3-10.1c-0.2-1.7-21.1-172.8-112.7-341.2
					c-121.4-223-303.3-336.1-540.8-336.1c-235.9,0-668.4,149.7-792.6,710.6c-93.3,421.2,60.1,577.4,130.4,625
					c83.9,56.8,193.4,61.7,266.4,11.9c4.3-2.9,9.6-4,14.7-3s9.6,4,12.5,8.4c3.5,5.2,86.7,128.4,213.2,64
					C1852.5,1568.2,1855.5,1567.5,1858.5,1567.5z"/>
			</g>
		</g>
		<g>
			<g>
				<path class="st1" d="M1602.5,1524.5c-1.1-1.7-1.7-2.8-2.5-4.1s-1.4-2.5-2.1-3.8c-1.3-2.5-2.6-5-3.7-7.6
					c-2.3-5.1-4.2-10.2-6.1-15.3c-3.5-10.4-6.2-20.9-8-31.6c-3.8-21.4-4.4-43.3-2.1-64.7c2.3-21.4,6.6-42.4,14.1-62.2
					c3.3-10,8-19.5,12.6-28.9c2.1-4.8,5.1-9.1,7.7-13.6c2.7-4.4,5.5-8.8,8.3-13.1c0.8-1.3,2.6-1.7,3.9-0.8c1,0.6,1.4,1.8,1.2,2.9
					l-0.1,0.3c-2,10.1-4.9,19.6-6.7,29.4c-1.5,9.9-3.8,19.4-4.5,29.2c-2.7,19.3-2.6,38.6-1.6,57.5c0.9,19,4.5,37.5,8.4,55.7
					c0.9,4.6,2.3,9,3.3,13.6c1.1,4.5,2.5,8.9,3.7,13.4c1.5,4.3,2.6,8.9,4.1,13.1c0.7,2.2,1.4,4.3,2.1,6.4l1.1,3.1
					c0.3,1,0.7,2.1,0.9,2.7l0.9,4c2.3,10.4-4.3,20.6-14.6,22.9C1614.7,1534.8,1606.7,1531.2,1602.5,1524.5z"/>
			</g>
		</g>
		<g class="st3">
			<g>
				<path class="st4" d="M2143.3,897.4c-14.8,0-29.7,0.6-44.8,2.1c-176.3,17.5-367.3,132.2-454.8,324.5
					c95.8-111.3,282.1-284.8,514.9-275.5c207.5,8.3,361.3,133.7,450.4,230.4C2550.7,1056.9,2363.9,897.4,2143.3,897.4z"/>
			</g>
		</g>
		<g>
			<g>
				<path class="st1" d="M2619.4,1417.7c2.3-29.2,5.7-56.5,7.2-83.8c0.6-13.7,0.7-27.3-0.1-40.9c-0.7-13.6-2.1-27.2-4.6-40.6
					c-9.6-54.3-38.9-102.9-75.7-145.6c-36.9-42.7-80.9-79.8-129-109.8c-48.2-30-100.7-53-155.4-66.5
					c-54.8-13.6-111.5-17.1-167.6-9.7c-56.4,6.9-111.7,21.9-163.1,45.4c-51.5,23.3-98.9,55.4-140.8,93.7
					c-10.5,9.5-20.6,19.6-30.4,29.9c-9.9,10.2-18.6,21.6-27.5,32.7s-18.1,22.1-28.1,32.5c-10.2,10.3-21.1,20.2-35.5,28.1
					c-3.5,1.9-7.9,0.6-9.8-2.9c-0.8-1.4-1-3-0.8-4.5c2.5-16.2,8.5-30.2,15.9-43.3c7.6-13,16.6-25.1,26.5-36.5
					c10-11.3,20.6-22,31.1-32.9s21.1-21.6,32.4-31.7c44.6-40.9,95.5-75.4,150.9-100.4c55.3-25.3,114.5-41.2,174.5-48.6
					c29.9-3.8,60.9-5.1,91.3-3.3c30.5,1.8,60.8,6.5,90.3,13.8c59.2,14.6,115.4,39.3,166.7,71.3c25.7,16,50.2,33.9,73.3,53.5
					c23,19.6,44.9,40.8,64.7,63.9s37.9,47.9,52.8,75.3c14.8,27.5,25.7,56.9,32.8,87.4c7.2,30.4,9.8,62.4,5.4,93.5
					c-2,15.5-5.4,30.9-11.2,45.5c-2.9,7.3-6.2,14.4-10.3,21.2c-4,6.8-8.4,13.2-14.3,19.3c-2.6,2.7-6.9,2.8-9.6,0.2
					c-1.5-1.5-2.2-3.4-2.1-5.4L2619.4,1417.7z"/>
			</g>
		</g>
		<g>
			<g>
				<path class="st9" d="M2178.4,1070.2c-20.8,22.7-76.4-52.7-123-23.7c-46.6,29-37.4,60.6-61.2,68.5c-23.7,7.9-62.7-21.1-103.1,7
					s-32.2,81.5-71.7,96.5c-39.5,14.9-82.8,38.4-82.1,86.3c0.8,49.5,70.3,37.8,81.7,61.5c11.4,23.7-8.8,79.9,33.4,101.9
					c42.2,22,109-16.6,129.2-21s77,30.6,127.4,30.7c59.7,0.1,63.3-49.2,110.7-64.1s86.5,29.1,143.3,16
					c54.4-12.5,43.9-77.5,78.1-113.6c34.3-36,135.3-65,134.4-114.2c-0.9-49.2-58.9-38.7-101-66.8c-42.2-28.1-28.5-37.4-71.5-59.9
					c-43-22.4-75.1,21.2-97.4,8.8C2283.2,1071.8,2250.4,991.4,2178.4,1070.2z"/>
			</g>
		</g>
		<g class="st0">
			<g>
				<path class="st1" d="M1852.7,1200.9c0,0,6.9-52.3,72.9-72.9s205-41.2,237.6-109.8c0,0,66,54.9,117.5,78.1s151-16.3,206.7,48.9
					c0,0-85.7,232.1-362,205C1893.5,1327.3,1852.7,1200.9,1852.7,1200.9z"/>
			</g>
		</g>
		<g>
			<g>
				<path class="st1" d="M1856.5,1205.5c0,0,87.5,75.3,167.7,26.1c78.4-48.2,106.9-114.2,146.4-116.5s75.3,62.9,161.6,91.1
					c87.2,28.5,132.2-28.8,154.4-53.1c0,0-91.5,200.3-327.3,201.2S1856.5,1205.5,1856.5,1205.5z"/>
			</g>
		</g>
		<g>
			<g>
				<path class="st1" d="M2082.1,982.7c13.3,26.3,69.9,6.2,89.6,6c17.5-0.2,71.7,22.3,87.6-6.8c19.4-35.6-26.8-62.6-82.7-65.6
					C2120.7,913.2,2063.4,945.5,2082.1,982.7z"/>
			</g>
		</g>
		<g>
			<g>
				<path class="st1" d="M1928.1,858.4c12.2-10,25.2-17.7,38.8-25c13.6-7.1,27.7-13.2,42.1-18.3c29-10.2,59.4-16.7,90.2-19.1
					s62.1-0.9,92.4,5.3c30.3,6.2,59.6,17,85.8,32.5c2.8,1.7,3.7,5.3,2.1,8.1c-1.4,2.3-4,3.3-6.4,2.7h-0.1
					c-28.7-7-56.9-12.6-85.4-14.7c-28.5-2.3-56.9-2-85.2,0.7c-28.3,2.8-56.4,7.8-84.4,14.3c-28,6.5-56,14.6-83.8,23.5l-0.3,0.1
					c-3.1,1-6.4-0.7-7.4-3.8C1925.4,862.4,1926.3,859.9,1928.1,858.4z"/>
			</g>
		</g>
		<g>
			<g>
				<path class="st1" d="M2171.9,1127.6c-10.5,0-19.1-8.3-19.4-18.9l-3.3-121c-0.3-10.7,8.2-19.6,18.9-19.9c0.2,0,0.4,0,0.5,0
					c10.5,0,19.1,8.3,19.4,18.9l3.3,121c0.3,10.7-8.2,19.6-18.9,19.9C2172.3,1127.6,2172.1,1127.6,2171.9,1127.6z"/>
			</g>
		</g>
		<g>
			<g>
				<path class="st10" d="M2071.9,1195.1c-13.8,12.4-29.2,24.9-47.8,36.3c-80.2,49.2-167.6-26-167.6-26s66.8,149.7,302.6,148.9
					c24.9-0.1,47.9-3,69.6-7c1.8-7.3,3.3-14.6,3.3-22.3C2231.9,1260,2162.8,1206,2071.9,1195.1z"/>
			</g>
		</g>
		<g>
			<g>
				<path class="st1" d="M2157.2,1373.7c-244,0-315.5-153.7-318.4-160.3c-3.7-8.3-1.2-18.1,6.1-23.5c7.3-5.4,17.4-5.1,24.2,0.8
					c1.3,1.1,78.2,65.2,144.9,24.3c35.7-21.9,60.1-47.4,81.6-69.9c25.6-26.7,45.8-47.8,73.9-49.5c26.3-1.6,48,15.7,73.2,35.7
					c24,19,53.8,42.7,95.6,56.4c70.6,23,107.9-18.6,130.2-43.5l3.8-4.2c6.4-7.1,17.1-8.4,25.1-3.1s10.9,15.6,7,24.3
					c-1,2.2-25,54.1-79.5,106.2c-50.3,48.2-137.2,105.8-265.5,106.3C2158.6,1373.7,2157.9,1373.7,2157.2,1373.7z M1929.1,1263.5
					c42.9,35.4,115.2,71.6,230.1,71.3c120.1-0.4,200.3-54.7,249-105.1c-22.9,5.4-50.1,5.3-82-5.1c-48.4-15.8-81.3-41.9-107.7-62.9
					c-18.9-15-35.3-28-46.8-27.3c-12.9,0.8-28.4,17-48.1,37.6c-22,23-49.4,51.6-89.3,76.1
					C1997.9,1270.5,1960.8,1271.1,1929.1,1263.5z"/>
			</g>
		</g>
		<g>
			<g>
				<path class="st1" d="M1858.6,1606c-4.4,0-8.8-1.5-12.5-4.5c-8.2-6.9-9.3-19.1-2.4-27.4c29.7-35.5,55.3-66.1-12.7-157.7
					c-73.2-98.6,4.9-216.8,8.3-221.8c6-8.9,18.1-11.2,27-5.2s11.2,18,5.2,26.9l0,0c-0.7,1-66.1,100.5-9.3,176.9
					c79.7,107.3,50.8,158.5,11.3,205.8C1869.7,1603.6,1864.2,1606,1858.6,1606z"/>
			</g>
		</g>
		<g>
			<g>
				<path class="st1" d="M2431.3,1520.1c-4.3,0-8.6-1.4-12.2-4.3c-8.3-6.7-9.7-19-2.9-27.3c72.5-89.8,73-152.7,73.4-198.6
					c0-3.2,0.1-6.4,0.1-9.4c0.7-42.7-21.6-120.3-21.9-121.1c-3-10.3,2.9-21.1,13.2-24.1s21.1,2.9,24.1,13.2
					c1,3.4,24.2,84,23.4,132.6c0,2.9-0.1,5.9-0.1,9.1c-0.4,48.7-1,122.3-82,222.6C2442.6,1517.6,2436.9,1520.1,2431.3,1520.1z"/>
			</g>
		</g>
		<g>
			<g>
				<path class="st1" d="M1975.1,1335.2c-2.8,0-5.5-0.6-8.1-1.8c-86.7-39.8-126.7-114.8-128.3-118c-4.1-7.9-2.4-17.5,4.2-23.5
					c16.5-14.8,73-61.5,109.8-43.1c19.6,9.8,31.2,38.1,37.5,91.6c4.4,37.6,4.3,73.8,4.3,75.3c0,6.6-3.4,12.8-9,16.3
					C1982.4,1334.2,1978.7,1335.2,1975.1,1335.2z M1881.3,1210.6c11.7,17.1,35.9,47.7,73.4,71.9c-0.6-11.3-1.6-24.3-3.1-37.4
					c-6.2-53.2-16.5-61.5-16.6-61.6C1929.1,1180.8,1905,1192.3,1881.3,1210.6z M1855.9,1206.5L1855.9,1206.5L1855.9,1206.5z"/>
			</g>
		</g>
		<g>
			<g>
				<path class="st1" d="M2409.3,1274.3c-2.2,0-4.3-0.4-6.4-1.1c-6.4-2.2-11.1-7.6-12.5-14.2c-7-32.6-20.3-111.1,9-136.5
					c33.8-29.3,88.9,9,99.5,17c7.9,5.9,10.1,16.8,5.2,25.3c-1.7,2.9-42.2,72.3-82.5,105.1
					C2417.9,1272.8,2413.7,1274.3,2409.3,1274.3z M2430.1,1150.5c-2.4,0-4.2,0.5-5.3,1.4c-5.3,5.8-5.9,32.2-2.5,62.3
					c15.5-18.3,29.6-39.2,38.5-53.1C2448.9,1154.6,2437.1,1150.5,2430.1,1150.5z"/>
			</g>
		</g>
		<g>
			<g>
				<path class="st9" d="M1663.4,1399.1c0-15.2,12.3-27.5,27.5-27.5s27.5,12.3,27.5,27.5s-12.3,27.5-27.5,27.5
					C1675.7,1426.6,1663.4,1414.3,1663.4,1399.1z"/>
			</g>
		</g>
		<g>
			<g>
				<path class="st9" d="M2220.2,1478.8c0-15.2,12.3-27.5,27.5-27.5s27.5,12.3,27.5,27.5s-12.3,27.5-27.5,27.5
					C2232.4,1506.3,2220.2,1494,2220.2,1478.8z"/>
			</g>
		</g>
		<g>
			<g>
				<path class="st2" d="M1531.9,393.5c76,0,63.4-62.3,63.4-62.3s-4.6-100.9-66.5-149.1c-43.7-34-126.3-38.8-210.4,24.3
					c-203.4,152.5-212.1,494.8,6.2,494.8c189.4,0,155-369.5,155-369.5S1485.7,393.5,1531.9,393.5z"/>
			</g>
		</g>
		<g class="st3">
			<g>
				<path class="st4" d="M1436.3,157.9c-36.6,2.4-78.4,17.1-120.5,48.7c-89.2,66.9-140.9,170.3-152.5,265.3
					c27.9-58.3,157.6-305.5,363.9-288.7c-0.4-0.3-0.7-0.7-1.1-1.1C1504.4,165.2,1472.9,155.4,1436.3,157.9z"/>
			</g>
		</g>
		<g>
			<g>
				<path class="st1" d="M1588.9,331.5c-12.3-28.5-21.5-56.1-33.8-81.1c-6.3-12.4-13.3-24.1-21.5-34.4c-4.3-4.9-8.5-10-13.3-14.1
					l-3.5-3.3c-1.2-1-2.5-1.8-3.7-2.8l-3.7-2.7l-4.1-2.4c-10.8-6.4-23.5-10.5-36.7-12.4s-26.9-1.7-40.4,0.2
					c-13.6,2.1-27,5.8-40.2,10.7l-9.7,4.2l-4.8,2.1l-4.7,2.5l-9.4,4.9l-9.1,5.6c-6.2,3.5-11.9,8-17.8,12c-5.8,4.2-11.4,9-17.1,13.5
					c-5.6,4.6-10.8,9.7-16.3,14.6c-5.4,4.9-10.2,10.4-15.3,15.6c-19.8,21.4-37.1,45.2-51.6,70.6c-28.8,50.8-46.7,108.5-48.8,166.3
					c-1,28.8,1.7,57.8,10.5,84.2c3.9,13.5,10.3,25.7,17.1,37.4c3.9,5.5,7.4,11.3,12.1,16.1c4.1,5.3,9.2,9.5,14,14
					c2.5,2.2,5.3,3.9,7.9,5.9l4,2.9c1.4,0.9,2.9,1.6,4.3,2.4l8.7,4.8l9.2,3.7c1.5,0.6,3.1,1.3,4.6,1.9l4.9,1.3l9.7,2.7l10.1,1.6
					c3.4,0.5,6.7,1.2,10.2,1.2c6.9,0.2,14,1.1,20.4,0.3c3.3-0.3,6.6-0.2,9.8-0.8l9.5-1.9c12.3-3.3,24.1-8.2,34.4-16.1
					c10.2-7.9,19.4-17.5,27.1-28.8c7.5-11.4,14.4-23.7,19.7-37c1.5-3.2,2.7-6.6,3.9-10c1.2-3.4,2.5-6.7,3.6-10.2
					c2.1-7,4.4-13.8,6.1-21c3.9-14.1,6.5-28.7,9.1-43.2c2.2-14.7,4.2-29.4,5.4-44.4c1.3-14.9,1.4-29.9,1.4-44.9
					c0.1-15,0.7-30,2.1-45c1.6-15.1,4.2-30.3,10.2-45.8l0.1-0.3c1.4-3.7,5.5-5.5,9.2-4.1c1.6,0.6,2.8,1.7,3.6,3.1
					c8.5,15.1,12.4,30.6,14.7,46.2c2.1,15.6,2.4,31.4,1.6,47.1c-0.8,15.7-2.7,31.4-4.1,47.1c-1.3,15.7-3.4,31.4-5.8,47.1
					c-2.7,15.7-5.6,31.4-9.8,46.9c-1.9,7.8-4.4,15.5-6.8,23.3c-1.2,3.9-2.7,7.7-4.1,11.5s-2.7,7.7-4.5,11.4
					c-6.1,15.2-14.2,30-23.6,44.2c-9.7,14.1-21.8,27-35.9,37.9c-14.2,10.9-31.2,18.3-48.5,22.7l-13.1,2.6c-4.4,0.8-8.8,0.7-13.1,1.1
					c-8.9,0.9-17.1,0-25.6-0.4c-4.2,0-8.4-0.8-12.7-1.5l-12.7-2l-12.5-3.4l-6.2-1.7c-2-0.7-4.1-1.6-6.1-2.4l-12.1-4.9l-11.5-6.3
					c-1.9-1.1-3.9-2.1-5.7-3.3l-5.4-3.8c-3.5-2.6-7.2-5-10.5-7.9c-13.4-11.4-24.8-24.7-34.1-39.2c-2.3-3.6-4.2-7.4-6.4-11.1
					c-2.1-3.7-4.2-7.5-5.7-11.4l-5.1-11.7c-1.5-3.9-2.7-7.9-4.1-11.9c-10.6-31.9-13.5-65.2-12.4-97.6
					c2.5-65.1,22.2-128.1,53.8-184.1c31.9-55.9,76-105.1,131.4-140.1l10.6-6.4l11-5.7l5.5-2.8l5.7-2.5l11.5-4.9
					c15.6-5.9,31.9-10.4,48.7-13c33.6-4.6,69.5-1.2,101.9,15.5l6,3.2c2,1.2,3.8,2.5,5.8,3.8c1.9,1.3,3.9,2.5,5.7,3.9l5.1,4.3
					c7.1,5.5,12.9,12.2,18.9,18.8c11.1,13.7,19.5,28.8,25.9,44.4c6.3,15.6,10.8,31.6,12.5,47.9c0.4,4.1,0.7,8.2,0.9,12.2
					c0.1,4.1,0.1,8.2-0.1,12.3c-0.3,8.2-1.2,16.2-3.4,24.6c-0.9,3.6-4.6,5.8-8.3,4.8c-2.1-0.5-3.7-2-4.5-3.8L1588.9,331.5z"/>
			</g>
		</g>
		<g>
			<g>
				<g>
					<path class="st4" d="M1855.9,1206.5c0,0,37.6,71.8,119.2,109.3c0,0,0.1-36.1-4.2-73c-4-34.1-11.8-69-26.9-76.5
						C1916.2,1152.4,1855.9,1206.5,1855.9,1206.5z"/>
				</g>
			</g>
			<g>
				<g>
					<path class="st1" d="M1975.1,1335.2c-2.8,0-5.5-0.6-8.1-1.8c-86.7-39.8-126.7-114.8-128.3-118c-4.1-7.9-2.4-17.5,4.2-23.5
						c16.5-14.8,73-61.5,109.8-43.1c19.6,9.8,31.2,38.1,37.5,91.6c4.4,37.6,4.3,73.8,4.3,75.3c0,6.6-3.4,12.8-9,16.3
						C1982.4,1334.2,1978.7,1335.2,1975.1,1335.2z M1881.3,1210.6c11.7,17.1,35.9,47.7,73.4,71.9c-0.6-11.3-1.6-24.3-3.1-37.4
						c-6.2-53.2-16.5-61.5-16.6-61.6C1929.1,1180.8,1905,1192.3,1881.3,1210.6z M1855.9,1206.5L1855.9,1206.5L1855.9,1206.5z"/>
				</g>
			</g>
		</g>
		<g>
			<g>
				<g>
					<path class="st4" d="M2487.3,1155.1c0,0-39.9,68.8-78,99.8c0,0-21-97.1,2.8-117.7C2435.8,1116.7,2487.3,1155.1,2487.3,1155.1z"
						/>
				</g>
			</g>
			<g>
				<g>
					<path class="st1" d="M2409.3,1274.3c-2.2,0-4.3-0.4-6.4-1.1c-6.4-2.2-11.1-7.6-12.5-14.2c-7-32.6-20.3-111.1,9-136.5
						c33.8-29.3,88.9,9,99.5,17c7.9,5.9,10.1,16.8,5.2,25.3c-1.7,2.9-42.2,72.3-82.5,105.1
						C2417.9,1272.8,2413.7,1274.3,2409.3,1274.3z M2430.1,1150.5c-2.4,0-4.2,0.5-5.3,1.4c-5.3,5.8-5.9,32.2-2.5,62.3
						c15.5-18.3,29.6-39.2,38.5-53.1C2448.9,1154.6,2437.1,1150.5,2430.1,1150.5z"/>
				</g>
			</g>
		</g>
		<g class="st0">
			<g>
				<path class="st1" d="M1475.3,264c-67.2,3.9-22.4,336-188,313.6c-108.5-14.7-68.3-188.2-27.6-307
					c-121.4,140.9-130.5,356.2-13.3,420.4c50.6,18.2,110.7,12.1,158.7-15.9c4-2.3,7.5-5.4,11.2-8c83.9-97.1,63-326.5,63-326.5
					s3.3,114.9,46.1,60.7C1537.2,386.1,1504.8,262.3,1475.3,264z"/>
			</g>
		</g>
		<g class="st0">
			<g>
				<path class="st1" d="M1297.3,1451.3c1.8,2,452.3,496.1,728.6,494.1c180.8-1.3,400-193.9,507.7-375
					c-127.3,123-323,280.3-502,290.2C1751.1,1876.1,1308.5,1461.8,1297.3,1451.3z"/>
			</g>
		</g>
		<g class="st0">
			<g>
				<path class="st1" d="M2649.1,1327.3c-60.4,71.2-137.7,54-137.7,54c-281.1,289.4-628,89-628,89
					c-160.2,98.1-235.6-39.3-266.5-128.5c-12.7,58.6-16.7,122.5-9.3,191.4c4.2-2.4,8.8-4.3,12.7-7c0,0,94.2,144,238.2,70.7
					c0,0,379.5,149.1,573.3-86.5c0,0,104.8,70.8,199-88.9c0,0,0.9-0.7,0.9-0.8C2635.8,1411.1,2648.4,1376.3,2649.1,1327.3z"/>
			</g>
		</g>
		<g>
			<g>
				<path class="st11" d="M2007.8,2138.9v359.8c0,120.8,272.5,218.7,608.6,218.7s608.3-98,608.3-218.7v-359.8H2007.8z"/>
			</g>
		</g>
		<g>
			<g>
				<path class="st1" d="M2616.3,2736.9c-164.7,0-319.9-23.2-436.9-65.2c-123.2-44.3-191.1-105.7-191.1-172.9V2139
					c0-10.7,8.7-19.4,19.4-19.4h1216.9c10.7,0,19.4,8.7,19.4,19.4v359.8c0,67.2-67.8,128.6-191,172.9
					C2936.1,2713.7,2780.9,2736.9,2616.3,2736.9z M2027.2,2158.3v340.4c0,96.2,236.7,199.3,589.1,199.3
					c352.3,0,588.9-103.1,588.9-199.3v-340.4H2027.2z"/>
			</g>
		</g>
		<g class="st0">
			<g>
				<path class="st1" d="M2007.3,2138.2v303.5c16.2,10.7,37.1,20.9,64.5,27c78.5,17.4,99.8-20,129.7-15s64.8,78.5,133.3,93.4
					c68.5,15,139.5-57.2,175.7-51c36.1,6.2,105.9,99.6,180.7,95.9c74.8-3.7,137.1-113.4,198.1-120.9c61.1-7.5,79.8,71.1,135.9,54.9
					c56.1-16.2,138.6-136.1,150.6-60.7c5.3,33.1-108.5,127.7-306.2,174.7c-219.4,52.1-534.2,52.4-733.8-8
					c111.4,51.4,284.8,84.6,480.1,84.6c336.1,0,608.3-98,608.3-218.7v-359.8H2007.3V2138.2z"/>
			</g>
		</g>
		<g>
			<g>
				<path class="st9" d="M2616.3,1921.1c-69.2,0-134.7,5-196.7,12.7l138.8,147.2l-377.7-93.8c-106.8,39.4-173,93.3-173,152.6v188.5
					c15,28,38.2,59.2,71.3,70.1c64.3,21.1,113.2-24.3,141.1-17.6c27.9,6.8,49.2,89.5,111.8,98s129.2-47.4,185.9-41.5
					s101.7,83.9,189.7,70.3c88-13.5,109-82.9,169-94.7c60.1-11.8,96.5,39.8,166.7,22c56.3-14.2,140.9-97,181.4-185.9v-109.2
					C3224.6,2019.1,2952.4,1921.1,2616.3,1921.1z"/>
			</g>
		</g>
		<g class="st0">
			<g>
				<path class="st1" d="M3224.7,2181.6c-54.4,93.4-173.9,200.8-207.1,202.5c-42.9,2.2-91.9-28.1-155-26.1s-104.6,85.1-164.1,91.5
					c-59.5,6.3-114-68.6-176.9-82.7c-62.9-14.1-142.6,64-175.7,59.5c-33-4.5-55.7-76.3-104.8-94.4c-49.1-18.1-86,17.1-154.6,6.5
					c-34.7-5.4-61-35.6-78.7-64.2v54c15,28,38.2,59.2,71.3,70.1c64.3,21.1,113.2-24.4,141.1-17.6s49.4,89.5,112,98
					s129.2-47.3,185.8-41.4c56.7,5.9,101.7,83.8,189.6,70.2c88-13.5,108.9-82.8,169-94.7c60.1-11.8,96.5,39.8,166.7,22
					c56.3-14.2,140.9-97,181.4-185.8V2181.6z"/>
			</g>
		</g>
		<g class="st3">
			<g>
				<path class="st4" d="M2615.9,1921.1c-69.2,0-134.6,4.9-196.6,12.6l38.4,40.7c38.8-3.9,79.2-6.3,122.9-5.9
					c338.1,3.3,551.9,86.4,643.7,196.8v-25.5C3224.2,2018.9,2951.9,1921.1,2615.9,1921.1z M2180.3,1987.1
					c-106.8,39.4-172.9,93.3-172.9,152.6v11.4c51.4-43.3,137.5-101.2,266.8-140.6L2180.3,1987.1z"/>
			</g>
		</g>
		<g>
			<g>
				<path class="st1" d="M2560.1,2100.2c-1.5,0-3.1-0.2-4.7-0.6l-162.5-40.2c-10.1-2.5-16.5-12.5-14.4-22.7l22-107.6
					c1.5-7.1,6.7-12.8,13.7-14.8s14.4,0,19.4,5.3l140.5,147.8c5.9,6.3,7.1,15.7,2.7,23.1C2573.3,2096.6,2566.9,2100.2,2560.1,2100.2
					z M2420.3,2026.2l79.9,19.7l-69-72.6L2420.3,2026.2z"/>
			</g>
		</g>
		<g>
			<g>
				<path class="st1" d="M2687.4,2528.6c-48.4,0-84.6-24.1-114.5-44c-21-14-39.2-26.1-57-28c-22.6-2.4-49.5,8-77.9,19
					c-34.9,13.5-71.1,27.5-108.5,22.4c-46.6-6.3-73.2-44.5-92.7-72.4c-6.7-9.6-16.8-24.1-21.4-26c-4.7-1.1-18.3,3.9-29.3,7.9
					c-28.2,10.3-66.9,24.5-113.1,9.3c-32.1-10.6-59.8-37.3-82.3-79.4c-1.5-2.8-2.3-6-2.3-9.2v-188.5c0-66,66-126.7,185.7-170.8
					c3.7-1.3,7.6-1.6,11.4-0.6l313.5,77.8l-93.4-99.1c-5-5.3-6.6-13-4.1-19.9s8.6-11.8,15.9-12.7c69.8-8.6,134.9-12.8,199.1-12.8
					c164.7,0,319.8,23.2,436.8,65.2c123.2,44.3,191,105.7,191,172.9v109.2c0,2.8-0.6,5.5-1.7,8.1
					c-41.2,90.4-130.2,180.4-194.4,196.7c-43.1,10.9-75.1-0.8-103.3-11.1c-22.3-8.1-41.5-15.2-64.3-10.7
					c-21.6,4.3-38.1,18.7-57.2,35.5c-25.9,22.7-58.1,51-112.6,59.3C2702.4,2528,2694.8,2528.6,2687.4,2528.6z M2509.3,2417.4
					c3.5,0,7.1,0.2,10.6,0.5c27.4,2.9,50.3,18.1,74.5,34.3c31.8,21.2,64.8,43.2,110.2,36.2c43.2-6.7,68.5-28.8,92.9-50.2
					c21.4-18.7,43.5-38.1,75.3-44.4c33.5-6.6,61,3.4,85.2,12.3c25.2,9.2,49,17.9,80.5,9.9c46.8-11.8,126-84.7,166.8-171.4v-105
					c0-96.2-236.6-199.3-588.9-199.3c-50.6,0-102,2.7-155.9,8.2l112.1,119c5.9,6.3,7,15.7,2.6,23.1c-4.4,7.4-13.1,11.1-21.4,9
					l-371.8-92.3c-98.4,37.3-154.8,85.4-154.8,132.3v183.5c12.3,21.9,31.8,48,57.9,56.6c33.4,11,62.2,0.4,87.6-8.9
					c19.1-7,35.7-13.1,52.1-9.1c18,4.4,30,21.6,43.9,41.5c17,24.4,36.3,52.1,66,56.1c27.6,3.7,59-8.4,89.3-20.1
					C2451.9,2428.6,2480.8,2417.4,2509.3,2417.4z M3224.6,2249.1L3224.6,2249.1L3224.6,2249.1z"/>
			</g>
		</g>
		<g>
			<g>
				<path class="st1" d="M2950.9,2328.1c-27.7,9.7-56.2,17.2-84.8,23.6c-28.7,6.2-57.6,11.4-86.8,15.1
					c-58.3,7.6-117.1,10.6-175.8,9.8s-117.4-4.9-175.5-13.8c-58-8.7-115.7-21.4-171-40.8c-3.4-1.2-5.2-4.9-4-8.3
					c1.1-3,4.2-4.8,7.2-4.3l0,0c57.1,9.7,114.1,16.9,171.4,21.6c57.3,4.5,114.7,6.9,172.1,6.9c57.4,0.1,114.8-1.8,172.1-5.6
					c28.6-1.9,57.3-4.1,85.9-7.1c28.7-2.8,57.3-6.4,86.1-9.9l0,0c3.6-0.4,6.8,2.1,7.2,5.7
					C2955.7,2324.3,2953.8,2327.2,2950.9,2328.1z"/>
			</g>
		</g>
		<g>
			<g>
				<path class="st1" d="M3244.1,2139.3c1,13.7-1.6,27.6-6.5,40.1c-4.7,12.6-12,23.6-20,33.2c-16.1,19.5-36,33.3-56.1,44.8
					c-20.2,11.5-41.3,20.3-62.7,27.5s-43.2,12.6-65.3,16.1c-1.5,0.2-3-0.8-3.2-2.3c-0.2-1.2,0.4-2.4,1.5-2.9
					c19.6-10.5,39-20.7,57.5-31.9c18.6-11,36.5-22.8,52.9-35.6s31.2-26.9,42.5-41.9c11.7-15,18.3-30.6,20.6-47.1l0.2-1.4
					c1.5-10.6,11.4-18,22-16.5C3236.6,2122.7,3243.4,2130.3,3244.1,2139.3z"/>
			</g>
		</g>
		<g>
			<g>
				<path class="st1" d="M2117.7,2267.5c-20.4-6.2-40.1-14.9-59-26.1c-9.3-5.7-18.6-11.9-27.1-19.4c-8.6-7.3-16.8-15.7-23.8-25.5
					c-7-9.7-13.2-20.7-16.7-33.2c-3.6-12.3-5.1-25.8-3.3-38.8c0.8-6.5,2.3-12.9,4.4-19c2-6.1,4.7-11.9,7.7-17.4
					c6-11,13.7-20.5,22.3-28.5c7.9-7.4,20.2-7,27.5,0.9c6.5,6.9,7,17.2,1.7,24.6l-0.3,0.4c-10.7,15-19,29.9-21.7,45.1
					c-2.4,15.1-0.5,31.3,8,47.3c8.1,16,20.7,31.2,35.2,45c14.4,14,30.7,26.8,47.5,39.5c1.2,0.9,1.5,2.7,0.6,3.9
					C2120.1,2267.5,2118.8,2267.9,2117.7,2267.5z"/>
			</g>
		</g>
		<g>
			<g>
				<g>
					<polygon class="st12" points="2397.4,2040.6 2559.9,2080.8 2419.4,1933 					"/>
				</g>
			</g>
			<g>
				<g>
					<path class="st1" d="M2560.1,2100.2c-1.5,0-3.1-0.2-4.7-0.6l-162.5-40.2c-10.1-2.5-16.5-12.5-14.4-22.7l22-107.6
						c1.5-7.1,6.7-12.8,13.7-14.8s14.4,0,19.4,5.3l140.5,147.8c5.9,6.3,7.1,15.7,2.7,23.1
						C2573.3,2096.6,2566.9,2100.2,2560.1,2100.2z M2420.3,2026.2l79.9,19.7l-69-72.6L2420.3,2026.2z"/>
				</g>
			</g>
		</g>
		<g>
			<g>
				<g>
					<circle class="st13" cx="2582.1" cy="1296.4" r="6.8"/>
				</g>
			</g>
			<g>
				<g>
					<path class="st1" d="M2582.1,1305.6c-5.1,0-9.3-4.2-9.3-9.3c0-5.1,4.2-9.3,9.3-9.3s9.3,4.2,9.3,9.3
						C2591.4,1301.5,2587.2,1305.6,2582.1,1305.6z M2582.1,1292.1c-2.3,0-4.3,1.9-4.3,4.3c0,2.3,1.9,4.3,4.3,4.3s4.3-1.9,4.3-4.3
						S2584.4,1292.1,2582.1,1292.1z"/>
				</g>
			</g>
		</g>
		<g>
			<g>
				<path class="st9" d="M2571.1,1296.4c0-6.1,4.9-11,11-11s11,4.9,11,11s-4.9,11-11,11S2571.1,1302.4,2571.1,1296.4z"/>
			</g>
		</g>
		<g>
			<g>
				<g>
					
						<ellipse transform="matrix(1 -1.728333e-03 1.728333e-03 1 -1.458 4.2121)" class="st1" cx="2436.4" cy="845.7" rx="84.6" ry="139.9"/>
				</g>
				<g>
					<path class="st1" d="M2436.4,988.2c-23.5,0-45.6-15-62.1-42.1c-16.3-26.8-25.3-62.4-25.3-100.2l0,0
						c-0.1-37.8,8.8-73.5,25-100.3c16.4-27.3,38.5-42.3,62-42.3h0.1c48.1,0,87.3,63.8,87.4,142.4
						C2523.8,924.1,2484.7,988.1,2436.4,988.2C2436.6,988.2,2436.6,988.2,2436.4,988.2z M2436.2,708.4L2436.2,708.4
						c-21.8,0-42.2,14.2-57.6,39.8c-15.7,26.1-24.3,60.7-24.2,97.6l0,0c0.1,36.9,8.8,71.6,24.6,97.6c15.5,25.6,36,39.6,57.6,39.6
						h0.1c45.2-0.1,81.9-61.7,81.8-137.5C2518.3,769.9,2481.4,708.4,2436.2,708.4z"/>
				</g>
			</g>
			<g>
				<g>
					
						<ellipse transform="matrix(1 -1.728194e-03 1.728194e-03 1 -1.5141 4.1745)" class="st4" cx="2414.8" cy="878.2" rx="25.6" ry="47"/>
				</g>
			</g>
		</g>
		<g>
			<g>
				<g>
					
						<ellipse transform="matrix(0.9988 -4.880697e-02 4.880697e-02 0.9988 -41.994 86.3829)" class="st1" cx="1747.8" cy="903.1" rx="86.2" ry="142.5"/>
				</g>
				<g>
					<path class="st1" d="M1752.3,1048.1c-47.8,0-89.3-62.2-93.1-140.7c-3.9-79.9,32.7-146.9,81.7-149.3s91.9,60.7,95.8,140.6l0,0
						c3.9,79.9-32.7,146.9-81.7,149.3C1754.1,1048.1,1753.2,1048.1,1752.3,1048.1z M1743.5,763.3c-0.8,0-1.6,0-2.5,0.1
						c-46,2.2-80.4,66.7-76.6,143.8c3.8,77,44.3,137.8,90.3,135.6c46-2.2,80.4-66.7,76.6-143.8l0,0
						C1827.6,823.4,1788.5,763.3,1743.5,763.3z"/>
				</g>
			</g>
			<g>
				<g>
					
						<ellipse transform="matrix(0.9988 -4.880741e-02 4.880741e-02 0.9988 -43.5232 87.5734)" class="st4" cx="1771.4" cy="935" rx="26" ry="47.9"/>
				</g>
			</g>
		</g>
		<g>
			<g>
				<path class="st14" d="M2754.2,2196.1c0-21.2,17.2-38.5,38.5-38.5s38.5,17.2,38.5,38.5s-17.2,38.5-38.5,38.5
					S2754.2,2217.4,2754.2,2196.1z"/>
			</g>
			<g>
				<path class="st1" d="M2792.6,2249.6c-29.5,0-53.5-24-53.5-53.5s24-53.5,53.5-53.5s53.5,24,53.5,53.5
					S2822.1,2249.6,2792.6,2249.6z M2792.6,2172.7c-12.9,0-23.5,10.5-23.5,23.5s10.5,23.5,23.5,23.5c12.9,0,23.5-10.5,23.5-23.5
					S2805.6,2172.7,2792.6,2172.7z"/>
			</g>
		</g>
		<g>
			<g>
				<path class="st14" d="M2931.2,2119.2c0-21.2,17.2-38.5,38.5-38.5c21.2,0,38.5,17.2,38.5,38.5c0,21.2-17.2,38.5-38.5,38.5
					S2931.2,2140.5,2931.2,2119.2z"/>
			</g>
			<g>
				<path class="st1" d="M2969.6,2172.7c-29.5,0-53.5-24-53.5-53.5s24-53.5,53.5-53.5s53.5,24,53.5,53.5
					S2999.1,2172.7,2969.6,2172.7z M2969.6,2095.8c-12.9,0-23.5,10.5-23.5,23.5c0,12.9,10.5,23.5,23.5,23.5
					c12.9,0,23.5-10.5,23.5-23.5S2982.6,2095.8,2969.6,2095.8z"/>
			</g>
		</g>
		<g>
			<g>
				<path class="st14" d="M2792.6,2045.3c0-21.2,17.2-38.5,38.5-38.5c21.2,0,38.5,17.2,38.5,38.5c0,21.3-17.2,38.5-38.5,38.5
					C2809.9,2083.8,2792.6,2066.6,2792.6,2045.3z"/>
			</g>
			<g>
				<path class="st1" d="M2831.1,2098.8c-29.5,0-53.5-24-53.5-53.5c0-29.5,24-53.5,53.5-53.5s53.5,24,53.5,53.5
					C2884.6,2074.8,2860.6,2098.8,2831.1,2098.8z M2831.1,2021.9c-12.9,0-23.5,10.5-23.5,23.5c0,13,10.5,23.5,23.5,23.5
					s23.5-10.5,23.5-23.5C2854.6,2032.4,2843.9,2021.9,2831.1,2021.9z"/>
			</g>
		</g>
		<g>
			<g>
				<path class="st14" d="M2604.2,2018.4c0-21.2,17.2-38.5,38.5-38.5c21.2,0,38.5,17.2,38.5,38.5c0,21.2-17.2,38.5-38.5,38.5
					C2621.4,2056.8,2604.2,2039.6,2604.2,2018.4z"/>
			</g>
			<g>
				<path class="st1" d="M2642.6,2071.8c-29.5,0-53.5-24-53.5-53.5s24-53.5,53.5-53.5s53.5,24,53.5,53.5
					S2672.1,2071.8,2642.6,2071.8z M2642.6,1994.9c-12.9,0-23.5,10.5-23.5,23.5c0,12.9,10.5,23.5,23.5,23.5s23.5-10.5,23.5-23.5
					S2655.6,1994.9,2642.6,1994.9z"/>
			</g>
		</g>
		<g>
			<g>
				<path class="st14" d="M2506.8,2215.1c0-21.2,17.2-38.5,38.5-38.5c21.2,0,38.5,17.2,38.5,38.5c0,21.2-17.2,38.5-38.5,38.5
					S2506.8,2236.4,2506.8,2215.1z"/>
			</g>
			<g>
				<path class="st1" d="M2545.3,2268.6c-29.5,0-53.5-24-53.5-53.5s24-53.5,53.5-53.5s53.5,24,53.5,53.5
					S2574.7,2268.6,2545.3,2268.6z M2545.3,2191.7c-12.9,0-23.5,10.5-23.5,23.5c0,12.9,10.5,23.5,23.5,23.5s23.5-10.5,23.5-23.5
					C2568.7,2202.2,2558.2,2191.7,2545.3,2191.7z"/>
			</g>
		</g>
		<g>
			<g>
				<path class="st14" d="M2302.3,2138.2c0-21.2,17.2-38.5,38.5-38.5c21.2,0,38.5,17.2,38.5,38.5s-17.2,38.5-38.5,38.5
					S2302.3,2159.5,2302.3,2138.2z"/>
			</g>
			<g>
				<path class="st1" d="M2340.7,2191.7c-29.5,0-53.5-24-53.5-53.5s24-53.5,53.5-53.5s53.5,24,53.5,53.5
					S2370.2,2191.7,2340.7,2191.7z M2340.7,2114.8c-12.9,0-23.5,10.5-23.5,23.5s10.5,23.5,23.5,23.5s23.5-10.5,23.5-23.5
					S2353.6,2114.8,2340.7,2114.8z"/>
			</g>
		</g>
	</g>
</g>
</svg>
